<svg width="36" height="37" viewBox="0 0 36 37" fill="none" xmlns="http://www.w3.org/2000/svg">
<path d="M35.9824 18.2368C35.9824 20.7604 35.9316 23.2913 35.9969 25.8149C36.1058 30.2821 33.2977 33.7339 29.7205 35.2713C28.2838 35.8877 26.7746 36.2141 25.2145 36.2141C20.3313 36.2213 15.4407 36.2866 10.5575 36.1923C6.87867 36.1198 3.85293 34.5824 1.68339 31.5511C0.544199 29.9557 0 28.1428 0 26.1775C0 20.978 0 15.7857 0 10.5861C0 6.3438 2.06796 3.37781 5.73948 1.44882C7.3358 0.614861 9.06998 0.259521 10.8767 0.25227C15.6149 0.25227 20.3603 0.223262 25.0985 0.266773C28.7772 0.295781 31.8465 1.70263 34.1104 4.66138C35.3729 6.31479 35.9824 8.21477 35.9824 10.3033C35.9824 12.943 35.9824 15.5899 35.9824 18.2368ZM2.67746 18.2368C2.67746 20.8982 2.67746 23.5524 2.67746 26.2138C2.67746 27.4031 2.95319 28.5199 3.56994 29.5279C5.18803 32.1748 7.6333 33.4656 10.6663 33.5164C15.5351 33.5889 20.4111 33.5454 25.2871 33.5309C26.4843 33.5309 27.6453 33.2843 28.7264 32.7694C31.6724 31.3626 33.3195 29.1218 33.305 25.7569C33.2759 20.6081 33.2977 15.4593 33.2977 10.3105C33.2977 8.85293 32.8841 7.5186 32.0207 6.3438C30.3518 4.08848 28.0444 2.97896 25.2871 2.94995C20.4256 2.89193 15.5641 2.92819 10.7026 2.93544C9.66497 2.93544 8.66365 3.14575 7.69134 3.50834C5.02114 4.50184 2.53959 7.01822 2.65569 10.7239C2.74276 13.233 2.67746 15.7349 2.67746 18.2368Z" fill="#D764FF"/>
<path d="M17.9189 25.924C13.3007 25.924 9.57748 22.1966 9.57032 17.5554C9.56316 12.9867 13.315 9.24476 17.9046 9.24476C22.5085 9.23751 26.2461 12.9722 26.2532 17.5771C26.2532 22.1748 22.5229 25.9168 17.9189 25.924ZM17.9189 23.2408C21.0622 23.2408 23.6112 20.6954 23.604 17.5626C23.5969 14.4588 21.0479 11.9207 17.9189 11.9207C14.7757 11.9207 12.2124 14.4516 12.2124 17.5771C12.2195 20.7099 14.7757 23.2481 17.9189 23.2408Z" fill="#D764FF"/>
<path d="M27.458 6.70648C28.4376 6.70648 29.2357 7.54046 29.2357 8.56299C29.2285 9.58552 28.423 10.4122 27.4435 10.405C26.4784 10.3977 25.6875 9.57102 25.6875 8.57024C25.6803 7.54771 26.4784 6.70648 27.458 6.70648Z" fill="#D764FF"/>
</svg>
