<svg width="37" height="36" viewBox="0 0 37 36" fill="none" xmlns="http://www.w3.org/2000/svg">
<path d="M17.0038 21.6066L31.8705 36H2.13702L17.0038 21.6066ZM33.4333 16.3854V34.4868L18.5668 20.0935L21.5371 17.2178C21.4805 17.151 21.4238 17.0841 21.3669 17.0168C20.9643 16.5419 20.5494 16.0517 20.1496 15.5347L0.574219 34.4868V4.90034C0.574219 4.50646 0.904137 4.18704 1.31097 4.18704H19.2066C20.8896 1.67025 23.8134 0 27.134 0C32.3394 0 36.5742 4.10002 36.5742 9.13945C36.5744 12.3219 35.001 14.5027 33.4333 16.3854ZM15.0675 11.4756H9.60697V13.4896H12.8236C12.3839 14.803 11.1082 15.7554 9.60697 15.7554C7.74298 15.7554 6.22659 14.2873 6.22659 12.4827C6.22659 10.678 7.74313 9.20992 9.60697 9.20992C10.3599 9.20992 11.0721 9.44417 11.6666 9.88727L12.9356 8.29148C11.9742 7.57477 10.8231 7.19601 9.60697 7.19601C6.596 7.19601 4.1463 9.56771 4.1463 12.4828C4.1463 15.3979 6.59586 17.7696 9.60697 17.7696C12.6179 17.7696 15.0676 15.3979 15.0676 12.4828V11.4756H15.0675ZM34.3641 9.13945C34.3641 5.27368 31.1273 2.13989 27.1342 2.13989C23.1413 2.13989 19.9046 5.27382 19.9046 9.13945C19.9046 14.9505 26.6917 16.6156 26.6917 23.5387H27.1343H27.577C27.5767 16.6158 34.3641 14.9507 34.3641 9.13945ZM27.134 5.93818C25.5782 5.93818 24.3168 7.15934 24.3168 8.66568C24.3168 10.1722 25.5783 11.3933 27.134 11.3933C28.6902 11.3933 29.9515 10.172 29.9515 8.66568C29.9515 7.15934 28.6902 5.93818 27.134 5.93818Z" fill="#D764FF"/>
</svg>
