<svg width="36" height="37" viewBox="0 0 36 37" fill="none" xmlns="http://www.w3.org/2000/svg">
<path d="M30 25.6405C28.48 25.6405 27.12 26.1827 26.08 27.0321L11.82 19.5321C11.92 19.1164 12 18.7007 12 18.267C12 17.8333 11.92 17.4176 11.82 17.0019L25.92 9.57422C27 10.4778 28.42 11.0381 30 11.0381C33.32 11.0381 36 8.61639 36 5.61639C36 2.61639 33.32 0.194702 30 0.194702C26.68 0.194702 24 2.61639 24 5.61639C24 6.05012 24.08 6.46579 24.18 6.88145L10.08 14.3092C9 13.4055 7.58 12.8453 6 12.8453C2.68 12.8453 0 15.267 0 18.267C0 21.267 2.68 23.6887 6 23.6887C7.58 23.6887 9 23.1284 10.08 22.2248L24.32 29.7429C24.22 30.1224 24.16 30.52 24.16 30.9176C24.16 33.8272 26.78 36.1947 30 36.1947C33.22 36.1947 35.84 33.8272 35.84 30.9176C35.84 28.008 33.22 25.6405 30 25.6405Z" fill="#D764FF"/>
</svg>
