<svg width="36" height="37" viewBox="0 0 36 37" fill="none" xmlns="http://www.w3.org/2000/svg">
<path d="M28.5 0.242798H7.5C3.3585 0.242798 0 3.6013 0 7.7428V28.7428C0 32.8843 3.3585 36.2428 7.5 36.2428H28.5C32.643 36.2428 36 32.8843 36 28.7428V7.7428C36 3.6013 32.643 0.242798 28.5 0.242798ZM28.875 25.7368H25.674C23.8665 25.7368 23.5605 24.7063 22.0725 23.2183C20.727 21.8728 19.98 22.9048 20.0115 24.8203C20.0205 25.3288 19.77 25.7368 19.1625 25.7368C17.2665 25.7368 14.5425 26.0038 11.7855 23.0278C8.961 19.9783 6 13.8613 6 13.2583C6 12.9028 6.294 12.7423 6.786 12.7423H10.041C10.902 12.7423 10.9755 13.1683 11.2155 13.7158C12.216 15.9973 14.613 20.5768 15.2505 18.0208C15.6165 16.5538 15.7665 13.1533 14.196 12.8608C13.305 12.6958 14.874 11.7418 17.148 11.7418C17.7135 11.7418 18.327 11.8033 18.9555 11.9473C20.109 12.2158 20.112 12.7318 20.097 13.4863C20.0385 16.3408 19.6935 18.2623 20.4465 18.7468C21.165 19.2118 23.055 16.1713 24.051 13.8253C24.3255 13.1758 24.3795 12.7423 25.152 12.7423H29.133C31.218 12.7423 28.86 15.7378 27.0585 18.0778C25.6065 19.9603 25.6845 19.9978 27.372 21.5638C28.5765 22.6798 29.997 24.2038 29.997 25.0678C30 25.4758 29.682 25.7368 28.875 25.7368Z" fill="#D764FF"/>
</svg>
